HIERARCHY
ROOT mixamorig:Hips
{
	OFFSET 0.000000 201.639420 0.000000
	CHANNELS 6 Xposition Yposition Zposition Xrotation Yrotation Zrotation
	JOINT mixamorig:Spine
	{
		OFFSET 0.006200 19.524994 -2.481800
		CHANNELS 3 Xrotation Yrotation Zrotation
		JOINT mixamorig:Spine1
		{
			OFFSET -0.000900 22.835007 -2.825400
			CHANNELS 3 Xrotation Yrotation Zrotation
			JOINT mixamorig:Spine2
			{
				OFFSET -0.020600 26.552490 -3.193300
				CHANNELS 3 Xrotation Yrotation Zrotation
				JOINT mixamorig:Neck
				{
					OFFSET -0.060000 30.701813 1.352200
					CHANNELS 3 Xrotation Yrotation Zrotation
					JOINT mixamorig:Head
					{
						OFFSET -0.087200 22.547607 3.670900
						CHANNELS 3 Xrotation Yrotation Zrotation
						JOINT mixamorig:HeadTop_End
						{
							OFFSET -0.830600 40.355194 7.893500
							CHANNELS 3 Xrotation Yrotation Zrotation
							End Site
							{
								OFFSET 0.000000 30.592346 0.000000
							}
						}
						JOINT mixamorig:RightEye
						{
							OFFSET -6.302100 18.118591 16.197100
							CHANNELS 3 Xrotation Yrotation Zrotation
							End Site
							{
								OFFSET 0.000000 30.592346 0.000000
							}
						}
						JOINT mixamorig:LeftEye
						{
							OFFSET 6.741500 18.382690 16.401899
							CHANNELS 3 Xrotation Yrotation Zrotation
							End Site
							{
								OFFSET 0.000000 30.592346 0.000000
							}
						}
					}
				}
				JOINT mixamorig:LeftShoulder
				{
					OFFSET 11.924900 18.230499 1.425400
					CHANNELS 3 Xrotation Yrotation Zrotation
					JOINT mixamorig:LeftArm
					{
						OFFSET 25.435989 -0.697632 -5.229300
						CHANNELS 3 Xrotation Yrotation Zrotation
						JOINT mixamorig:LeftForeArm
						{
							OFFSET 54.684776 0.000000 0.000000
							CHANNELS 3 Xrotation Yrotation Zrotation
							JOINT mixamorig:LeftHand
							{
								OFFSET 55.098175 0.000000 0.000000
								CHANNELS 3 Xrotation Yrotation Zrotation
								JOINT mixamorig:LeftHandMiddle1
								{
									OFFSET 23.369751 0.000000 0.000000
									CHANNELS 3 Xrotation Yrotation Zrotation
									JOINT mixamorig:LeftHandMiddle2
									{
										OFFSET 6.378677 0.000000 0.000000
										CHANNELS 3 Xrotation Yrotation Zrotation
										JOINT mixamorig:LeftHandMiddle3
										{
											OFFSET 6.148331 0.000000 0.000000
											CHANNELS 3 Xrotation Yrotation Zrotation
											JOINT mixamorig:LeftHandMiddle4
											{
												OFFSET 6.582504 0.000000 0.000000
												CHANNELS 3 Xrotation Yrotation Zrotation
												End Site
												{
													OFFSET -1.168900 6.395691 1.028606
												}
											}
										}
									}
								}
								JOINT mixamorig:LeftHandThumb1
								{
									OFFSET 7.235672 -3.848206 5.434273
									CHANNELS 3 Xrotation Yrotation Zrotation
									JOINT mixamorig:LeftHandThumb2
									{
										OFFSET 6.568451 -3.792297 3.792300
										CHANNELS 3 Xrotation Yrotation Zrotation
										JOINT mixamorig:LeftHandThumb3
										{
											OFFSET 6.063080 -3.500519 3.500518
											CHANNELS 3 Xrotation Yrotation Zrotation
											JOINT mixamorig:LeftHandThumb4
											{
												OFFSET 4.793182 -2.767334 2.767349
												CHANNELS 3 Xrotation Yrotation Zrotation
												End Site
												{
													OFFSET 0.101639 6.054260 1.275483
												}
											}
										}
									}
								}
								JOINT mixamorig:LeftHandIndex1
								{
									OFFSET 23.101074 -0.309540 4.992809
									CHANNELS 3 Xrotation Yrotation Zrotation
									JOINT mixamorig:LeftHandIndex2
									{
										OFFSET 6.226883 0.000000 0.000000
										CHANNELS 3 Xrotation Yrotation Zrotation
										JOINT mixamorig:LeftHandIndex3
										{
											OFFSET 6.094330 0.000000 0.000000
											CHANNELS 3 Xrotation Yrotation Zrotation
											JOINT mixamorig:LeftHandIndex4
											{
												OFFSET 5.482605 0.000000 0.000000
												CHANNELS 3 Xrotation Yrotation Zrotation
												End Site
												{
													OFFSET -1.427902 5.233032 0.797164
												}
											}
										}
									}
								}
								JOINT mixamorig:LeftHandRing1
								{
									OFFSET 22.299240 0.021149 -3.964172
									CHANNELS 3 Xrotation Yrotation Zrotation
									JOINT mixamorig:LeftHandRing2
									{
										OFFSET 6.321869 0.000000 0.000000
										CHANNELS 3 Xrotation Yrotation Zrotation
										JOINT mixamorig:LeftHandRing3
										{
											OFFSET 5.899796 0.000000 0.000000
											CHANNELS 3 Xrotation Yrotation Zrotation
											JOINT mixamorig:LeftHandRing4
											{
												OFFSET 6.517899 0.000000 0.000000
												CHANNELS 3 Xrotation Yrotation Zrotation
												End Site
												{
													OFFSET -1.637299 6.232208 0.980890
												}
											}
										}
									}
								}
								JOINT mixamorig:LeftHandPinky1
								{
									OFFSET 20.463791 -0.302338 -8.562233
									CHANNELS 3 Xrotation Yrotation Zrotation
									JOINT mixamorig:LeftHandPinky2
									{
										OFFSET 6.908646 0.000000 0.000000
										CHANNELS 3 Xrotation Yrotation Zrotation
										JOINT mixamorig:LeftHandPinky3
										{
											OFFSET 4.622849 0.000000 0.000000
											CHANNELS 3 Xrotation Yrotation Zrotation
											JOINT mixamorig:LeftHandPinky4
											{
												OFFSET 5.216080 0.000000 0.000000
												CHANNELS 3 Xrotation Yrotation Zrotation
												End Site
												{
													OFFSET -0.606308 5.116241 0.814926
												}
											}
										}
									}
								}
							}
						}
					}
				}
				JOINT mixamorig:RightShoulder
				{
					OFFSET -12.001300 18.284088 1.348900
					CHANNELS 3 Xrotation Yrotation Zrotation
					JOINT mixamorig:RightArm
					{
						OFFSET -25.308500 -0.751312 -5.164599
						CHANNELS 3 Xrotation Yrotation Zrotation
						JOINT mixamorig:RightForeArm
						{
							OFFSET -54.684429 0.000000 0.000000
							CHANNELS 3 Xrotation Yrotation Zrotation
							JOINT mixamorig:RightHand
							{
								OFFSET -55.150291 0.000000 0.000000
								CHANNELS 3 Xrotation Yrotation Zrotation
								JOINT mixamorig:RightHandMiddle1
								{
									OFFSET -23.317566 0.000000 0.000000
									CHANNELS 3 Xrotation Yrotation Zrotation
									JOINT mixamorig:RightHandMiddle2
									{
										OFFSET -6.378403 0.000000 0.000000
										CHANNELS 3 Xrotation Yrotation Zrotation
										JOINT mixamorig:RightHandMiddle3
										{
											OFFSET -6.148193 0.000000 0.000000
											CHANNELS 3 Xrotation Yrotation Zrotation
											JOINT mixamorig:RightHandMiddle4
											{
												OFFSET -6.583389 0.000000 0.000000
												CHANNELS 3 Xrotation Yrotation Zrotation
												End Site
												{
													OFFSET 1.171692 6.395905 1.029786
												}
											}
										}
									}
								}
								JOINT mixamorig:RightHandThumb1
								{
									OFFSET -7.190521 -3.860474 5.435846
									CHANNELS 3 Xrotation Yrotation Zrotation
									JOINT mixamorig:RightHandThumb2
									{
										OFFSET -6.567429 -3.791718 3.791708
										CHANNELS 3 Xrotation Yrotation Zrotation
										JOINT mixamorig:RightHandThumb3
										{
											OFFSET -6.062469 -3.500153 3.500166
											CHANNELS 3 Xrotation Yrotation Zrotation
											JOINT mixamorig:RightHandThumb4
											{
												OFFSET -4.792618 -2.767029 2.767022
												CHANNELS 3 Xrotation Yrotation Zrotation
												End Site
												{
													OFFSET -0.100327 6.053253 1.276754
												}
											}
										}
									}
								}
								JOINT mixamorig:RightHandIndex1
								{
									OFFSET -23.048981 -0.310791 4.992554
									CHANNELS 3 Xrotation Yrotation Zrotation
									JOINT mixamorig:RightHandIndex2
									{
										OFFSET -6.227539 0.000000 0.000000
										CHANNELS 3 Xrotation Yrotation Zrotation
										JOINT mixamorig:RightHandIndex3
										{
											OFFSET -6.095047 0.000000 0.000000
											CHANNELS 3 Xrotation Yrotation Zrotation
											JOINT mixamorig:RightHandIndex4
											{
												OFFSET -5.484772 0.000000 0.000000
												CHANNELS 3 Xrotation Yrotation Zrotation
												End Site
												{
													OFFSET 1.420593 5.237305 0.797056
												}
											}
										}
									}
								}
								JOINT mixamorig:RightHandRing1
								{
									OFFSET -22.246323 0.020569 -3.963762
									CHANNELS 3 Xrotation Yrotation Zrotation
									JOINT mixamorig:RightHandRing2
									{
										OFFSET -6.322128 0.000000 0.000000
										CHANNELS 3 Xrotation Yrotation Zrotation
										JOINT mixamorig:RightHandRing3
										{
											OFFSET -5.900024 0.000000 0.000000
											CHANNELS 3 Xrotation Yrotation Zrotation
											JOINT mixamorig:RightHandRing4
											{
												OFFSET -6.518356 0.000000 0.000000
												CHANNELS 3 Xrotation Yrotation Zrotation
												End Site
												{
													OFFSET 1.636398 6.232697 0.982186
												}
											}
										}
									}
								}
								JOINT mixamorig:RightHandPinky1
								{
									OFFSET -20.411011 -0.303314 -8.561701
									CHANNELS 3 Xrotation Yrotation Zrotation
									JOINT mixamorig:RightHandPinky2
									{
										OFFSET -6.907349 0.000000 0.000000
										CHANNELS 3 Xrotation Yrotation Zrotation
										JOINT mixamorig:RightHandPinky3
										{
											OFFSET -4.623840 0.000000 0.000000
											CHANNELS 3 Xrotation Yrotation Zrotation
											JOINT mixamorig:RightHandPinky4
											{
												OFFSET -5.218353 0.000000 0.000000
												CHANNELS 3 Xrotation Yrotation Zrotation
												End Site
												{
													OFFSET 0.602097 5.118835 0.816273
												}
											}
										}
									}
								}
							}
						}
					}
				}
			}
		}
	}
	JOINT mixamorig:LeftUpLeg
	{
		OFFSET 18.168400 -13.561905 -0.039000
		CHANNELS 3 Xrotation Yrotation Zrotation
		JOINT mixamorig:LeftLeg
		{
			OFFSET 0.577358 -80.825211 -3.695000
			CHANNELS 3 Xrotation Yrotation Zrotation
			JOINT mixamorig:LeftFoot
			{
				OFFSET -0.577356 -83.370262 -6.520700
				CHANNELS 3 Xrotation Yrotation Zrotation
				JOINT mixamorig:LeftToeBase
				{
					OFFSET 0.750401 -20.798306 25.135401
					CHANNELS 3 Xrotation Yrotation Zrotation
					JOINT mixamorig:LeftToe_End
					{
						OFFSET -0.000500 0.001200 19.917799
						CHANNELS 3 Xrotation Yrotation Zrotation
						End Site
						{
							OFFSET 0.000000 19.917805 0.000000
						}
					}
				}
			}
		}
	}
	JOINT mixamorig:RightUpLeg
	{
		OFFSET -18.162500 -13.585098 -0.041000
		CHANNELS 3 Xrotation Yrotation Zrotation
		JOINT mixamorig:RightLeg
		{
			OFFSET -0.595024 -80.945297 -3.631900
			CHANNELS 3 Xrotation Yrotation Zrotation
			JOINT mixamorig:RightFoot
			{
				OFFSET 0.595024 -83.218193 -6.561200
				CHANNELS 3 Xrotation Yrotation Zrotation
				JOINT mixamorig:RightToeBase
				{
					OFFSET -0.753601 -20.807106 25.115000
					CHANNELS 3 Xrotation Yrotation Zrotation
					JOINT mixamorig:RightToe_End
					{
						OFFSET 0.000299 0.001700 19.918200
						CHANNELS 3 Xrotation Yrotation Zrotation
						End Site
						{
							OFFSET 0.000000 19.918203 0.000000
						}
					}
				}
			}
		}
	}
}
MOTION
Frames: 4
Frame Time: 0.033333
3.415373 181.803741 -3.026126 -11.325768 -59.349802 -11.236440 3.146636 -0.404464 0.537034 6.316208 -0.688579 -2.162432 6.324724 -0.632537 -2.165695 12.711817 6.064405 -0.934260 -11.004118 37.591186 -7.080947 0.000001 -0.000000 0.000000 0.000001 -0.000000 0.000000 0.000001 -0.000000 0.000000 0.950789 -4.850385 -8.485915 -17.490436 -1.607608 -30.869491 -0.001671 -94.627906 -0.001654 -7.418257 -7.801997 -9.587637 0.198134 1.643114 -13.750818 0.078390 1.038081 -8.635514 0.019551 0.519554 -4.309410 0.000008 0.000001 0.000001 -0.317950 10.635279 1.350750 3.422517 51.506439 17.170139 2.125229 23.164566 9.641552 0.000000 -0.000001 0.000001 0.198593 1.644991 -13.766814 0.078094 1.036174 -8.619527 0.019545 0.519552 -4.309412 -0.000002 0.000000 0.000000 0.198599 1.644993 -13.766812 0.078081 1.036176 -8.619526 0.019547 0.519553 -4.309411 -0.000001 -0.000000 -0.000001 1.149631 5.586663 -13.316401 0.069341 -3.018813 -9.124498 0.019556 0.519557 -4.309412 0.000000 -0.000001 0.000001 1.570093 9.026809 10.803285 16.948684 9.465317 34.377158 0.000114 106.988575 -0.000148 -18.163256 -23.667760 14.061738 5.888480 -6.867330 81.205745 6.741589 -6.945184 88.291533 1.951040 -4.833767 43.940974 0.000001 0.000004 -0.000001 31.348509 -12.022235 59.276480 -46.817320 1.430933 -68.330326 -24.626681 -7.304651 -38.587062 0.000001 0.000003 0.000003 5.888481 -6.867318 81.205738 6.741556 -6.945148 88.291506 1.951055 -4.833770 43.940991 -0.000000 0.000004 -0.000001 5.888487 -6.867341 81.205745 6.741585 -6.945193 88.291513 1.951047 -4.833751 43.940984 0.000001 0.000001 0.000001 5.888476 -6.867321 81.205745 6.741580 -6.945175 88.291526 1.951046 -4.833760 43.940987 -0.000001 -0.000002 0.000001 -31.370342 8.660802 30.007688 49.416125 8.893675 0.526031 -4.621730 3.151390 -17.500065 -3.550328 0.000014 0.000004 -0.000000 -0.000001 0.000000 -25.556754 -3.332644 -17.629306 56.029097 7.525615 0.350937 -21.796262 1.562284 -1.383207 -3.483501 -0.000053 0.000003 0.000000 -0.000000 0.000000 
2.045377 183.307358 -2.278747 -10.513507 -59.955482 -10.015855 2.896193 -0.204631 0.437825 5.818671 -0.284760 -2.162322 5.823616 -0.236945 -2.165042 13.521112 5.954277 -1.097643 -10.368264 37.336106 -7.318661 -0.000000 0.000001 -0.000000 -0.000000 0.000001 -0.000000 -0.000000 0.000001 -0.000000 0.960202 -5.033241 -8.183248 -18.144901 0.059103 -29.726578 -0.000027 -96.683199 -0.000052 -7.143792 -7.893765 -9.348885 0.198131 1.643114 -13.750823 0.078390 1.038080 -8.635513 0.019553 0.519554 -4.309413 0.000003 0.000001 0.000001 -0.317949 10.635281 1.350750 3.422515 51.506443 17.170138 2.125229 23.164564 9.641555 0.000000 -0.000001 0.000001 0.198589 1.644989 -13.766816 0.078097 1.036174 -8.619527 0.019550 0.519554 -4.309412 0.000001 0.000001 -0.000000 0.198594 1.644992 -13.766819 0.078081 1.036176 -8.619527 0.019560 0.519555 -4.309412 -0.000001 -0.000001 -0.000000 1.149625 5.586664 -13.316406 0.069334 -3.018813 -9.124498 0.019556 0.519557 -4.309413 -0.000001 0.000000 0.000001 1.342098 8.436531 10.733155 17.680471 10.724540 32.727722 0.000112 104.095081 -0.000149 -17.732027 -20.009611 12.892486 5.888480 -6.867330 81.205745 6.741591 -6.945181 88.291533 1.951044 -4.833759 43.940977 0.000002 0.000006 0.000002 31.348509 -12.022236 59.276480 -46.817320 1.430935 -68.330326 -24.626674 -7.304649 -38.587058 0.000001 0.000002 0.000001 5.888482 -6.867319 81.205738 6.741549 -6.945145 88.291506 1.951054 -4.833766 43.940991 0.000002 0.000001 0.000002 5.888487 -6.867339 81.205745 6.741576 -6.945196 88.291519 1.951046 -4.833761 43.940987 -0.000001 -0.000000 0.000000 5.888475 -6.867317 81.205745 6.741576 -6.945175 88.291526 1.951041 -4.833760 43.940987 -0.000002 0.000002 -0.000001 -29.991958 9.438851 29.181369 47.240355 9.388957 0.555896 -3.161900 3.244306 -17.934275 -4.322665 0.000008 0.000003 0.000000 0.000002 0.000000 -24.955510 -3.311575 -18.001175 54.314180 7.757972 0.365401 -20.813919 1.444217 -1.164969 -3.804338 0.000014 -0.000006 -0.000001 0.000001 0.000000 
0.807180 184.746902 -1.448962 -9.649548 -60.524232 -8.788904 2.653204 -0.013955 0.361701 5.335559 0.100756 -2.144333 5.337108 0.140729 -2.146571 14.307554 5.845806 -1.263173 -9.763033 37.088252 -7.544987 0.000000 -0.000002 0.000000 0.000000 -0.000002 0.000000 0.000000 -0.000002 0.000000 0.969445 -5.209579 -7.892402 -18.850016 1.683889 -28.635286 -0.000996 -98.522528 -0.001048 -6.816848 -7.984491 -9.070189 0.198125 1.643115 -13.750818 0.078390 1.038081 -8.635514 0.019544 0.519554 -4.309411 0.000005 0.000001 -0.000001 -0.317953 10.635276 1.350750 3.422516 51.506443 17.170139 2.125226 23.164566 9.641554 0.000003 -0.000000 0.000000 0.198593 1.644987 -13.766814 0.078105 1.036175 -8.619527 0.019554 0.519553 -4.309411 -0.000002 0.000000 0.000001 0.198593 1.644990 -13.766816 0.078084 1.036176 -8.619527 0.019553 0.519554 -4.309412 -0.000001 0.000001 0.000000 1.149627 5.586660 -13.316407 0.069342 -3.018814 -9.124498 0.019550 0.519556 -4.309413 -0.000004 -0.000001 0.000001 1.124821 7.874157 10.662239 18.415578 11.900746 31.075476 0.000193 101.259453 -0.000226 -17.047496 -16.263466 11.493331 5.888481 -6.867327 81.205751 6.741589 -6.945181 88.291533 1.951041 -4.833759 43.940977 0.000002 0.000000 0.000002 31.348516 -12.022230 59.276480 -46.817320 1.430937 -68.330326 -24.626681 -7.304651 -38.587058 0.000002 0.000000 -0.000001 5.888483 -6.867318 81.205738 6.741552 -6.945148 88.291513 1.951054 -4.833764 43.940987 0.000001 0.000002 0.000001 5.888487 -6.867338 81.205745 6.741579 -6.945196 88.291519 1.951045 -4.833755 43.940987 0.000000 0.000004 0.000001 5.888477 -6.867321 81.205751 6.741582 -6.945175 88.291526 1.951046 -4.833760 43.940987 -0.000001 0.000003 0.000001 -28.759758 10.182223 28.391262 45.187575 9.849320 0.582950 -1.588626 3.233725 -18.318050 -5.080634 -0.000005 -0.000002 -0.000000 -0.000000 0.000000 -24.386040 -3.264631 -18.357605 52.594553 7.965719 0.377926 -19.716115 1.322757 -0.961872 -4.186268 0.000071 -0.000005 -0.000000 0.000001 0.000000 
-0.234288 185.951126 -0.657620 -8.787365 -61.001178 -7.634542 2.436771 0.143048 0.327499 4.904847 0.419830 -2.099789 4.903570 0.453293 -2.101629 15.034334 5.746596 -1.420940 -9.226287 36.889155 -7.765664 -0.000000 -0.000001 -0.000000 -0.000000 -0.000001 -0.000000 -0.000000 -0.000001 -0.000000 0.977775 -5.375768 -7.650573 -19.637192 3.292216 -27.616967 -0.000048 -100.102890 -0.000105 -6.518924 -8.006627 -8.809480 0.198130 1.643115 -13.750819 0.078385 1.038080 -8.635512 0.019551 0.519555 -4.309410 0.000002 0.000001 0.000001 -0.317951 10.635278 1.350752 3.422517 51.506443 17.170144 2.125231 23.164563 9.641552 -0.000001 0.000001 0.000000 0.198588 1.644991 -13.766816 0.078098 1.036175 -8.619530 0.019550 0.519553 -4.309413 -0.000002 0.000000 -0.000000 0.198593 1.644994 -13.766812 0.078086 1.036176 -8.619527 0.019556 0.519554 -4.309414 0.000000 0.000001 0.000002 1.149623 5.586665 -13.316407 0.069338 -3.018812 -9.124493 0.019563 0.519557 -4.309413 -0.000001 0.000000 -0.000000 0.936307 7.395711 10.598790 19.061287 12.903986 29.439075 0.000746 98.662062 -0.000785 -16.139720 -12.590150 9.849587 5.888481 -6.867325 81.205745 6.741593 -6.945183 88.291533 1.951039 -4.833763 43.940974 0.000003 0.000002 -0.000002 31.348516 -12.022235 59.276480 -46.817320 1.430935 -68.330326 -24.626679 -7.304647 -38.587062 0.000000 -0.000002 0.000000 5.888481 -6.867315 81.205738 6.741553 -6.945149 88.291506 1.951053 -4.833768 43.940997 0.000001 -0.000001 0.000001 5.888488 -6.867336 81.205745 6.741582 -6.945195 88.291519 1.951048 -4.833751 43.940987 -0.000001 -0.000003 -0.000002 5.888477 -6.867319 81.205745 6.741582 -6.945179 88.291526 1.951043 -4.833761 43.940991 0.000000 -0.000003 -0.000000 -27.820863 10.799804 27.729559 43.502967 10.240971 0.604538 -0.063846 3.112240 -18.648110 -5.800008 -0.000005 -0.000003 0.000000 -0.000000 0.000000 -23.956976 -3.189947 -18.671837 51.131325 8.127405 0.387205 -18.651592 1.210879 -0.771915 -4.597504 0.000048 -0.000007 0.000000 0.000000 -0.000001 
